# xmcd
#
# Track frame offsets:
#	150
#	27492
#	49944
#	63353
#	82590
#	98679
#	111194
#	127244
#	140494
#	156269
#	172477
#	189747
#	204192
#
# Disc length: 2867 seconds
#
# Revision: 0
# Processed by: cddbd v1.5.2PL0 Copyright (c) Steve Scherf et al.
# Submitted via: Collectorz.com Music Collector 1.0
#
DISCID=b90b310d
DTITLE=Various Artist - Live Country Volume 2
DYEAR=2006
DGENRE=Country
TTITLE0=Keith Urban - Somebody Like You
TTITLE1=Tim McGraw - Don't Take The Girl
TTITLE2=Jason Aldean - Why?
TTITLE3=Faith Hill - Stranger
TTITLE4=Craig Morgan - Redneck Yacht Club
TTITLE5=Sugarland - Tennessee
TTITLE6=Vince Gill - Feels Like Love
TTITLE7=LeAnn Rimes - Nothin' 'Bout Love Makes Sense
TTITLE8=Kenny Rogers - The Last Ten Years (Superman)
TTITLE9=SHeDAISY - Passenger Seat
TTITLE10=Billy Currington - Must Be Doin' Something Right
TTITLE11=Josh Turner - Lord Have Mercy On A Country Boy
TTITLE12=George Strait - Heartland
EXTD=
EXTT0=
EXTT1=
EXTT2=
EXTT3=
EXTT4=
EXTT5=
EXTT6=
EXTT7=
EXTT8=
EXTT9=
EXTT10=
EXTT11=
EXTT12=
PLAYORDER=
